<?xml version="1.0" standalone="no"?>
<!DOCTYPE svg PUBLIC "-//W3C//DTD SVG 20010904//EN"
 "http://www.w3.org/TR/2001/REC-SVG-20010904/DTD/svg10.dtd">
<svg version="1.0" xmlns="http://www.w3.org/2000/svg"
 width="190.000000pt" height="190.000000pt" viewBox="0 0 190.000000 190.000000"
 preserveAspectRatio="xMidYMid meet">
<metadata>
Created by potrace 1.11, written by Peter Selinger 2001-2013
</metadata>
<g transform="translate(0.000000,190.000000) scale(0.100000,-0.100000)"
fill="#000000" stroke="none">
<path d="M1478 1545 c-25 -8 -63 -31 -82 -50 -33 -32 -36 -39 -36 -93 0 -112
26 -167 156 -322 139 -167 207 -290 160 -290 -8 0 -58 27 -110 61 -56 36 -100
58 -107 53 -7 -4 -9 -3 -6 3 12 19 -93 56 -173 61 -97 6 -178 -14 -295 -73
-146 -73 -174 -63 -255 87 -52 98 -97 144 -187 191 -39 20 -90 53 -114 73 -23
19 -50 39 -60 45 -29 15 -43 -23 -36 -102 5 -61 4 -69 -18 -89 -14 -13 -22
-27 -18 -33 3 -6 1 -7 -4 -4 -6 4 -18 -2 -27 -12 -20 -22 -56 -113 -56 -142 0
-11 -7 -27 -15 -35 -45 -46 5 -118 108 -156 31 -11 57 -26 57 -32 0 -7 -13
-25 -30 -41 -39 -37 -60 -84 -60 -133 l0 -39 -74 -6 c-85 -8 -119 -20 -141
-53 -13 -20 -13 -27 -3 -44 13 -20 22 -20 869 -20 l857 0 20 42 c43 93 55 143
56 229 l1 86 -86 174 c-76 153 -95 184 -160 253 -41 44 -82 86 -92 95 -11 9
-34 36 -53 60 -26 34 -34 53 -34 86 0 56 27 89 96 114 110 42 155 24 210 -83
38 -74 68 -101 84 -75 9 14 -27 102 -60 149 -40 56 -76 73 -159 77 -48 2 -93
-3 -123 -12z m27 -344 c3 -5 2 -12 -3 -15 -5 -3 -9 1 -9 9 0 17 3 19 12 6z"/>
</g>
</svg>
